<svg width="112" height="44" viewBox="0 0 112 44" fill="none" xmlns="http://www.w3.org/2000/svg">
<g clip-path="url(#clip0)">
<path d="M10.4182 20.8824C12.1389 21.9156 13.8837 22.9098 15.7605 23.995C15.7605 23.5544 15.7605 23.2736 15.7605 22.9918C15.7645 19.2776 15.7846 15.5634 15.7595 11.8492C15.7555 11.2107 15.9517 10.86 16.5213 10.5572C17.9157 9.81577 19.2691 8.99739 20.6374 8.20799C22.4593 7.15679 24.2791 6.10359 26.1229 5.03839C26.0048 4.80257 25.9257 4.61571 25.8226 4.44285C23.9598 1.30423 20.1499 -0.273579 16.5764 0.610751C12.9557 1.50607 10.247 4.69865 10.1709 8.37287C10.0889 12.3199 10.1429 16.2689 10.1549 20.2169C10.1559 20.4447 10.253 20.7835 10.4182 20.8824Z" fill="#0066FF"/>
<path d="M25.8058 32.3159C25.8388 30.3169 25.8268 28.3159 25.8268 26.1964C25.3623 26.4483 25.0068 26.6324 24.6584 26.8315C21.5318 28.6165 18.3992 30.3925 15.2877 32.2034C14.7721 32.5031 14.3986 32.5319 13.864 32.2173C10.9376 30.4961 7.98324 28.8216 5.03685 27.1332C4.76754 26.9789 4.48621 26.8455 4.18787 26.6912C4.0387 26.9201 3.91756 27.0814 3.82045 27.2566C2.0444 30.4642 2.59904 34.4812 5.18101 37.1293C7.77901 39.7943 11.8447 40.4991 15.1355 38.7072C18.5794 36.8316 21.9543 34.8286 25.3502 32.8664C25.5475 32.7519 25.8018 32.5051 25.8058 32.3159Z" fill="#0066FF"/>
<path d="M17.0506 12.1325C17.0226 14.1081 17.0457 16.0845 17.0542 18.1716C17.4308 17.9728 17.7116 17.8361 17.9803 17.6815C21.1763 15.8375 24.3794 14.0074 27.5553 12.1306C28.1156 11.7994 28.5111 11.8237 29.057 12.1404C32.221 13.9774 35.4088 15.7735 38.672 17.632C38.8461 17.3542 38.9785 17.1653 39.0868 16.9645C40.8245 13.7281 40.2205 9.72169 37.6019 7.09902C34.9713 4.46345 30.9162 3.82413 27.628 5.64958C24.2239 7.53928 20.8773 9.53341 17.5176 11.5017C17.3049 11.6261 17.0538 11.9162 17.0506 12.1325Z" fill="#0066FF"/>
<path d="M32.6092 23.6754C32.1156 22.8119 30.7702 22.4251 29.7869 21.8463C28.9431 21.3496 28.0843 20.8768 27.1141 20.3261C27.1141 24.475 27.092 28.4501 27.1352 32.4251C27.1422 33.1208 26.8964 33.4556 26.3245 33.7785C23.136 35.5796 19.9695 37.4197 16.7308 39.2837C16.8452 39.5096 16.9034 39.6426 16.9766 39.7675C18.8558 42.9999 22.7236 44.6191 26.3596 43.6976C30.0498 42.762 32.6915 39.4986 32.7467 35.7195C32.7888 32.8239 32.7617 29.9274 32.7567 27.0308C32.7537 25.8923 33.1039 24.541 32.6092 23.6754Z" fill="#0066FF"/>
<path d="M39.0259 19.2874C35.6596 17.2478 32.22 15.3265 28.7975 13.3801C28.5745 13.2537 28.1608 13.2477 27.9378 13.3701C26.2396 14.3036 24.5675 15.2823 22.7478 16.3272C23.1535 16.5759 23.4197 16.7464 23.6928 16.9048C26.9215 18.775 30.1472 20.6532 33.388 22.5023C33.856 22.769 34.0297 23.0658 34.0257 23.6063C34.0006 27.0428 34.0126 30.4803 34.0126 33.9167C34.0126 34.2256 34.0126 34.5355 34.0126 34.8323C37.861 35.1181 41.3789 32.6934 42.577 29.0363C43.7801 25.3621 42.3641 21.31 39.0259 19.2874Z" fill="#0066FF"/>
<path d="M14.1895 30.8891C14.3894 31.003 14.7321 31.094 14.9009 31.001C16.6644 30.0299 18.4047 29.0197 20.2526 27.9616C19.8979 27.7358 19.6627 27.5749 19.4166 27.4321C16.2875 25.6266 13.1686 23.8021 10.0165 22.0376C9.2709 21.621 8.91117 21.1923 8.96544 20.2841C9.05989 18.6795 8.99156 17.0658 8.99156 15.4562C8.99156 13.4999 8.99156 11.5435 8.99156 9.50824C8.72428 9.48726 8.57959 9.46727 8.4359 9.46627C4.75223 9.4383 1.39111 11.9552 0.346103 15.5231C-0.713981 19.1411 0.708842 23.0338 3.96043 24.9961C7.32758 27.0274 10.7701 28.9398 14.1895 30.8891Z" fill="#0066FF"/>
<path d="M21.3528 28.9848C25.3648 28.9848 28.6173 25.7324 28.6173 21.7203C28.6173 17.7082 25.3648 14.4558 21.3528 14.4558C17.3407 14.4558 14.0883 17.7082 14.0883 21.7203C14.0883 25.7324 17.3407 28.9848 21.3528 28.9848Z" fill="white"/>
<path d="M21.3535 25.9029C23.6635 25.9029 25.5361 24.0303 25.5361 21.7203C25.5361 19.4103 23.6635 17.5377 21.3535 17.5377C19.0435 17.5377 17.1709 19.4103 17.1709 21.7203C17.1709 24.0303 19.0435 25.9029 21.3535 25.9029Z" fill="#0066FF"/>
</g>
<path d="M55.4935 17.1337C54.753 17.1337 54.0689 16.953 53.4413 16.5916C52.8206 16.2231 52.3269 15.7271 51.9602 15.1035C51.6005 14.4728 51.4207 13.7855 51.4207 13.0414C51.4207 12.2974 51.6005 11.6136 51.9602 10.99C52.3269 10.3593 52.8206 9.86327 53.4413 9.50188C54.0689 9.13339 54.753 8.94915 55.4935 8.94915C56.1142 8.94915 56.6995 9.08379 57.2496 9.35307C57.8068 9.62234 58.2687 9.99082 58.6355 10.4585L57.3766 11.447C57.1579 11.1707 56.8829 10.9581 56.5514 10.8093C56.227 10.6534 55.8744 10.5754 55.4935 10.5754C55.0351 10.5754 54.619 10.6853 54.2452 10.9049C53.8715 11.1175 53.5752 11.4116 53.3566 11.7872C53.145 12.1627 53.0393 12.5808 53.0393 13.0414C53.0393 13.502 53.145 13.9201 53.3566 14.2957C53.5752 14.6712 53.8715 14.9689 54.2452 15.1885C54.619 15.4011 55.0351 15.5074 55.4935 15.5074C55.8673 15.5074 56.22 15.4295 56.5514 15.2736C56.8829 15.1177 57.1579 14.9051 57.3766 14.6358L58.6355 15.6243C58.2617 16.092 57.7962 16.4605 57.239 16.7298C56.689 16.9991 56.1071 17.1337 55.4935 17.1337Z" fill="#0066FF"/>
<path d="M63.2097 17.1337C62.4692 17.1337 61.7851 16.953 61.1574 16.5916C60.5368 16.2231 60.0431 15.7271 59.6764 15.1035C59.3167 14.4728 59.1369 13.7855 59.1369 13.0414C59.1369 12.2974 59.3167 11.6136 59.6764 10.99C60.0431 10.3593 60.5368 9.86327 61.1574 9.50188C61.7851 9.13339 62.4692 8.94915 63.2097 8.94915C63.9502 8.94915 64.6308 9.13339 65.2514 9.50188C65.8791 9.86327 66.3728 10.3593 66.7325 10.99C67.0992 11.6136 67.2826 12.2974 67.2826 13.0414C67.2826 13.7855 67.0992 14.4728 66.7325 15.1035C66.3728 15.7271 65.8791 16.2231 65.2514 16.5916C64.6308 16.953 63.9502 17.1337 63.2097 17.1337ZM63.2097 15.5074C63.6681 15.5074 64.0842 15.4011 64.458 15.1885C64.8318 14.9689 65.1245 14.6712 65.3361 14.2957C65.5547 13.9201 65.664 13.502 65.664 13.0414C65.664 12.5808 65.5547 12.1627 65.3361 11.7872C65.1245 11.4116 64.8318 11.1175 64.458 10.9049C64.0842 10.6853 63.6681 10.5754 63.2097 10.5754C62.7513 10.5754 62.3352 10.6853 61.9614 10.9049C61.5876 11.1175 61.2914 11.4116 61.0728 11.7872C60.8612 12.1627 60.7554 12.5808 60.7554 13.0414C60.7554 13.502 60.8612 13.9201 61.0728 14.2957C61.2914 14.6712 61.5876 14.9689 61.9614 15.1885C62.3352 15.4011 62.7513 15.5074 63.2097 15.5074Z" fill="#0066FF"/>
<path d="M77.2919 9.05545V17.0274H75.6522V11.6915L72.944 16.4109L70.257 11.6809V17.0274H68.6067V9.05545H70.3839L72.944 13.4666L75.5252 9.05545H77.2919Z" fill="#0066FF"/>
<path d="M82.2074 9.05545C82.6376 9.05545 83.0325 9.16174 83.3922 9.37433C83.7589 9.58691 84.0446 9.87744 84.2491 10.2459C84.4607 10.6073 84.5665 11.0041 84.5665 11.4364C84.5665 11.8687 84.4607 12.2655 84.2491 12.6269C84.0446 12.9812 83.7625 13.2611 83.4028 13.4666C83.0431 13.665 82.6446 13.7642 82.2074 13.7642H80.5465V17.0274H78.8962V9.05545H82.2074ZM81.9535 12.3824C82.2497 12.3824 82.493 12.2974 82.6834 12.1273C82.8809 11.9572 82.9796 11.734 82.9796 11.4577C82.9796 11.1813 82.8809 10.9581 82.6834 10.788C82.493 10.6109 82.2497 10.5223 81.9535 10.5223H80.5465V12.3824H81.9535Z" fill="#0066FF"/>
<path d="M88.6516 17.1337C88.0451 17.1337 87.4915 17.0168 86.9908 16.7829C86.4971 16.5491 86.1057 16.2302 85.8165 15.8263C85.5344 15.4153 85.3933 14.9618 85.3933 14.4657V9.05545H87.0436V14.1575C87.0436 14.4339 87.1142 14.689 87.2552 14.9228C87.3963 15.1496 87.5902 15.3303 87.8371 15.4649C88.0839 15.5925 88.3554 15.6562 88.6516 15.6562C88.9549 15.6562 89.2299 15.5925 89.4768 15.4649C89.7236 15.3303 89.9176 15.1496 90.0586 14.9228C90.2067 14.689 90.2808 14.4339 90.2808 14.1575V9.05545H91.9205V14.4657C91.9205 14.9618 91.7759 15.4153 91.4868 15.8263C91.2046 16.2302 90.8132 16.5491 90.3125 16.7829C89.8188 17.0168 89.2652 17.1337 88.6516 17.1337Z" fill="#0066FF"/>
<path d="M98.466 10.5329H96.4455V17.0274H94.8058V10.5329H92.7852V9.05545H98.466V10.5329Z" fill="#0066FF"/>
<path d="M101.086 10.5223V12.308H103.868V13.7748H101.086V15.5606H104.312V17.0274H99.4355V9.05545H104.312V10.5223H101.086Z" fill="#0066FF"/>
<path d="M111.864 17.0274H109.96L107.993 13.8811H107.242V17.0274H105.591V9.05545H108.902C109.34 9.05545 109.738 9.16528 110.098 9.38495C110.457 9.59754 110.74 9.88807 110.944 10.2566C111.156 10.625 111.261 11.0325 111.261 11.4789C111.261 12.0175 111.106 12.4922 110.796 12.9032C110.493 13.3072 110.101 13.5764 109.622 13.7111L111.864 17.0274ZM108.67 12.51C108.959 12.51 109.199 12.4178 109.389 12.2336C109.579 12.0423 109.675 11.8049 109.675 11.5214C109.675 11.238 109.579 11.0041 109.389 10.8199C109.199 10.6286 108.959 10.5329 108.67 10.5329H107.242V12.51H108.67Z" fill="#0066FF"/>
<path d="M58.9317 20.3045L55.7474 28.2764H53.8961L50.7119 20.3045H52.5632L54.8271 26.512L57.0804 20.3045H58.9317Z" fill="#0066FF"/>
<path d="M59.6513 20.3045H61.3016V28.2764H59.6513V20.3045Z" fill="#0066FF"/>
<path d="M65.3462 28.3827C64.6903 28.3827 64.0979 28.2197 63.569 27.8938C63.0471 27.5678 62.6592 27.1462 62.4053 26.6289L63.7488 25.7892C63.8899 26.1151 64.1015 26.3738 64.3836 26.5651C64.6657 26.7564 64.9901 26.8521 65.3568 26.8521C65.6883 26.8521 65.9492 26.7812 66.1396 26.6395C66.3371 26.4907 66.4358 26.2887 66.4358 26.0336C66.4358 25.8352 66.3724 25.6687 66.2454 25.5341C66.1185 25.3923 65.9598 25.279 65.7694 25.1939C65.586 25.1018 65.3286 24.9955 64.9971 24.875C64.5246 24.6979 64.1367 24.5314 63.8335 24.3755C63.5373 24.2125 63.2798 23.9786 63.0612 23.6739C62.8496 23.3692 62.7438 22.9795 62.7438 22.5047C62.7438 22.0087 62.8602 21.5871 63.0929 21.2398C63.3257 20.8926 63.6289 20.634 64.0027 20.4639C64.3836 20.2867 64.7891 20.1982 65.2193 20.1982C65.6918 20.1982 66.1361 20.3009 66.5522 20.5064C66.9754 20.7048 67.3315 20.9741 67.6207 21.3142L66.5311 22.3346C66.1291 21.874 65.6918 21.6437 65.2193 21.6437C64.9654 21.6437 64.7573 21.7075 64.5951 21.8351C64.4329 21.9626 64.3518 22.1504 64.3518 22.3984C64.3518 22.5827 64.4082 22.7421 64.5211 22.8767C64.641 23.0043 64.7891 23.1106 64.9654 23.1956C65.1488 23.2807 65.3991 23.3799 65.7165 23.4932C66.2031 23.6704 66.5981 23.844 66.9013 24.0141C67.2116 24.1771 67.4761 24.4251 67.6947 24.7581C67.9204 25.0841 68.0333 25.5128 68.0333 26.0443C68.0333 26.519 67.9134 26.9336 67.6736 27.2879C67.4338 27.6422 67.1094 27.915 66.7003 28.1063C66.2913 28.2906 65.8399 28.3827 65.3462 28.3827Z" fill="#0066FF"/>
<path d="M69.2073 20.3045H70.8576V28.2764H69.2073V20.3045Z" fill="#0066FF"/>
<path d="M76.3093 28.3827C75.5688 28.3827 74.8847 28.202 74.257 27.8406C73.6364 27.4721 73.1427 26.9761 72.776 26.3525C72.4163 25.7218 72.2364 25.0345 72.2364 24.2904C72.2364 23.5464 72.4163 22.8626 72.776 22.239C73.1427 21.6083 73.6364 21.1123 74.257 20.7509C74.8847 20.3824 75.5688 20.1982 76.3093 20.1982C77.0498 20.1982 77.7304 20.3824 78.351 20.7509C78.9787 21.1123 79.4723 21.6083 79.832 22.239C80.1988 22.8626 80.3821 23.5464 80.3821 24.2904C80.3821 25.0345 80.1988 25.7218 79.832 26.3525C79.4723 26.9761 78.9787 27.4721 78.351 27.8406C77.7304 28.202 77.0498 28.3827 76.3093 28.3827ZM76.3093 26.7564C76.7677 26.7564 77.1838 26.6501 77.5576 26.4375C77.9314 26.2179 78.224 25.9203 78.4356 25.5447C78.6543 25.1691 78.7636 24.751 78.7636 24.2904C78.7636 23.8298 78.6543 23.4117 78.4356 23.0362C78.224 22.6606 77.9314 22.3665 77.5576 22.154C77.1838 21.9343 76.7677 21.8244 76.3093 21.8244C75.8509 21.8244 75.4348 21.9343 75.061 22.154C74.6872 22.3665 74.391 22.6606 74.1724 23.0362C73.9608 23.4117 73.855 23.8298 73.855 24.2904C73.855 24.751 73.9608 25.1691 74.1724 25.5447C74.391 25.9203 74.6872 26.2179 75.061 26.4375C75.4348 26.6501 75.8509 26.7564 76.3093 26.7564Z" fill="#0066FF"/>
<path d="M89.0373 20.3045V28.2764H87.3447L83.3565 22.7704V28.2764H81.7062V20.3045H83.3988L87.3976 25.7892V20.3045H89.0373Z" fill="#0066FF"/>
<path d="M58.9317 31.5535L55.7474 39.5254H53.8961L50.7119 31.5535H52.5632L54.8271 37.761L57.0804 31.5535H58.9317Z" fill="#0066FF"/>
<path d="M59.6513 31.5535H61.3016V39.5254H59.6513V31.5535Z" fill="#0066FF"/>
<path d="M64.6798 33.0203V34.806H67.462V36.2729H64.6798V38.0586H67.9063V39.5254H63.0295V31.5535H67.9063V33.0203H64.6798Z" fill="#0066FF"/>
<path d="M74.1678 33.0309H72.1473V39.5254H70.5075V33.0309H68.487V31.5535H74.1678V33.0309Z" fill="#0066FF"/>
<path d="M82.4049 31.5535V39.5254H80.7123L76.7241 34.0195V39.5254H75.0738V31.5535H76.7664L80.7652 37.0382V31.5535H82.4049Z" fill="#0066FF"/>
<path d="M88.9926 37.9842H85.491L84.9198 39.5254H83.132L86.3162 31.5535H88.1675L91.3517 39.5254H89.5639L88.9926 37.9842ZM88.4848 36.5917L87.2471 33.2542L86.0094 36.5917H88.4848Z" fill="#0066FF"/>
<path d="M100.764 31.5535V39.5254H99.1239V34.1895L96.4157 38.9089L93.7287 34.1789V39.5254H92.0784V31.5535H93.8557L96.4157 35.9646L98.997 31.5535H100.764Z" fill="#0066FF"/>
<defs>
<clipPath id="clip0">
<rect y="0.367035" width="43" height="43.587" fill="white"/>
</clipPath>
</defs>
</svg>
