<svg width="112" height="44" viewBox="0 0 112 44" fill="none" xmlns="http://www.w3.org/2000/svg">
<g clip-path="url(#clip0)">
<path d="M10.4182 20.8823C12.1389 21.9155 13.8837 22.9098 15.7605 23.9949C15.7605 23.5543 15.7605 23.2735 15.7605 22.9917C15.7645 19.2775 15.7846 15.5633 15.7595 11.8491C15.7555 11.2106 15.9517 10.8599 16.5213 10.5571C17.9157 9.81568 19.2691 8.9973 20.6374 8.2079C22.4593 7.1567 24.2791 6.10349 26.1229 5.0383C26.0048 4.80248 25.9257 4.61562 25.8226 4.44275C23.9598 1.30413 20.1499 -0.27367 16.5764 0.610659C12.9557 1.50598 10.247 4.69856 10.1709 8.37277C10.0889 12.3198 10.1429 16.2688 10.1549 20.2168C10.1559 20.4446 10.253 20.7834 10.4182 20.8823Z" fill="#007BFF"/>
<path d="M10.4182 20.8823C12.1389 21.9155 13.8837 22.9098 15.7605 23.9949C15.7605 23.5543 15.7605 23.2735 15.7605 22.9917C15.7645 19.2775 15.7846 15.5633 15.7595 11.8491C15.7555 11.2106 15.9517 10.8599 16.5213 10.5571C17.9157 9.81568 19.2691 8.9973 20.6374 8.2079C22.4593 7.1567 24.2791 6.10349 26.1229 5.0383C26.0048 4.80248 25.9257 4.61562 25.8226 4.44275C23.9598 1.30413 20.1499 -0.27367 16.5764 0.610659C12.9557 1.50598 10.247 4.69856 10.1709 8.37277C10.0889 12.3198 10.1429 16.2688 10.1549 20.2168C10.1559 20.4446 10.253 20.7834 10.4182 20.8823Z" fill="url(#paint0_linear)"/>
<path d="M10.4182 20.8823C12.1389 21.9155 13.8837 22.9098 15.7605 23.9949C15.7605 23.5543 15.7605 23.2735 15.7605 22.9917C15.7645 19.2775 15.7846 15.5633 15.7595 11.8491C15.7555 11.2106 15.9517 10.8599 16.5213 10.5571C17.9157 9.81568 19.2691 8.9973 20.6374 8.2079C22.4593 7.1567 24.2791 6.10349 26.1229 5.0383C26.0048 4.80248 25.9257 4.61562 25.8226 4.44275C23.9598 1.30413 20.1499 -0.27367 16.5764 0.610659C12.9557 1.50598 10.247 4.69856 10.1709 8.37277C10.0889 12.3198 10.1429 16.2688 10.1549 20.2168C10.1559 20.4446 10.253 20.7834 10.4182 20.8823Z" fill="white"/>
<path d="M25.8058 32.3158C25.8388 30.3168 25.8268 28.3158 25.8268 26.1963C25.3623 26.4482 25.0068 26.6323 24.6584 26.8314C21.5318 28.6164 18.3992 30.3924 15.2877 32.2033C14.7721 32.503 14.3986 32.5318 13.864 32.2172C10.9376 30.496 7.98324 28.8215 5.03685 27.1331C4.76754 26.9788 4.48621 26.8454 4.18787 26.6911C4.0387 26.92 3.91756 27.0813 3.82045 27.2565C2.0444 30.4641 2.59904 34.4811 5.18101 37.1292C7.77901 39.7942 11.8447 40.499 15.1355 38.7071C18.5794 36.8315 21.9543 34.8285 25.3502 32.8663C25.5475 32.7518 25.8018 32.5049 25.8058 32.3158Z" fill="url(#paint1_linear)"/>
<path d="M25.8058 32.3158C25.8388 30.3168 25.8268 28.3158 25.8268 26.1963C25.3623 26.4482 25.0068 26.6323 24.6584 26.8314C21.5318 28.6164 18.3992 30.3924 15.2877 32.2033C14.7721 32.503 14.3986 32.5318 13.864 32.2172C10.9376 30.496 7.98324 28.8215 5.03685 27.1331C4.76754 26.9788 4.48621 26.8454 4.18787 26.6911C4.0387 26.92 3.91756 27.0813 3.82045 27.2565C2.0444 30.4641 2.59904 34.4811 5.18101 37.1292C7.77901 39.7942 11.8447 40.499 15.1355 38.7071C18.5794 36.8315 21.9543 34.8285 25.3502 32.8663C25.5475 32.7518 25.8018 32.5049 25.8058 32.3158Z" fill="white"/>
<path d="M17.0506 12.1324C17.0226 14.108 17.0457 16.0844 17.0542 18.1715C17.4308 17.9726 17.7116 17.8359 17.9803 17.6813C21.1763 15.8373 24.3794 14.0072 27.5553 12.1304C28.1156 11.7992 28.5111 11.8235 29.057 12.1403C32.221 13.9773 35.4088 15.7733 38.672 17.6319C38.8461 17.3541 38.9785 17.1652 39.0868 16.9644C40.8245 13.7279 40.2205 9.72155 37.6019 7.09888C34.9713 4.46331 30.9162 3.82399 27.628 5.64943C24.2239 7.53914 20.8773 9.53327 17.5176 11.5015C17.3049 11.626 17.0538 11.9161 17.0506 12.1324Z" fill="white"/>
<path d="M32.6092 23.6753C32.1156 22.8117 30.7702 22.4249 29.7869 21.8462C28.9431 21.3494 28.0843 20.8767 27.1141 20.3259C27.1141 24.4749 27.092 28.4499 27.1352 32.425C27.1422 33.1206 26.8964 33.4555 26.3245 33.7783C23.136 35.5794 19.9695 37.4195 16.7308 39.2836C16.8452 39.5095 16.9034 39.6424 16.9766 39.7673C18.8558 42.9997 22.7236 44.6189 26.3596 43.6974C30.0498 42.7619 32.6915 39.4985 32.7467 35.7193C32.7888 32.8238 32.7617 29.9272 32.7567 27.0306C32.7537 25.8922 33.1039 24.5408 32.6092 23.6753Z" fill="url(#paint2_linear)"/>
<path d="M32.6092 23.6753C32.1156 22.8117 30.7702 22.4249 29.7869 21.8462C28.9431 21.3494 28.0843 20.8767 27.1141 20.3259C27.1141 24.4749 27.092 28.4499 27.1352 32.425C27.1422 33.1206 26.8964 33.4555 26.3245 33.7783C23.136 35.5794 19.9695 37.4195 16.7308 39.2836C16.8452 39.5095 16.9034 39.6424 16.9766 39.7673C18.8558 42.9997 22.7236 44.6189 26.3596 43.6974C30.0498 42.7619 32.6915 39.4985 32.7467 35.7193C32.7888 32.8238 32.7617 29.9272 32.7567 27.0306C32.7537 25.8922 33.1039 24.5408 32.6092 23.6753Z" fill="white"/>
<path d="M39.0259 19.2874C35.6596 17.2478 32.22 15.3265 28.7975 13.3801C28.5745 13.2538 28.1608 13.2477 27.9378 13.3701C26.2396 14.3037 24.5675 15.2824 22.7478 16.3272C23.1535 16.5759 23.4197 16.7464 23.6928 16.9048C26.9215 18.775 30.1472 20.6532 33.388 22.5023C33.856 22.769 34.0297 23.0658 34.0257 23.6063C34.0006 27.0428 34.0126 30.4803 34.0126 33.9168C34.0126 34.2256 34.0126 34.5355 34.0126 34.8323C37.861 35.1181 41.3789 32.6934 42.577 29.0363C43.7801 25.3622 42.3641 21.31 39.0259 19.2874Z" fill="url(#paint3_linear)"/>
<path d="M39.0259 19.2874C35.6596 17.2478 32.22 15.3265 28.7975 13.3801C28.5745 13.2538 28.1608 13.2477 27.9378 13.3701C26.2396 14.3037 24.5675 15.2824 22.7478 16.3272C23.1535 16.5759 23.4197 16.7464 23.6928 16.9048C26.9215 18.775 30.1472 20.6532 33.388 22.5023C33.856 22.769 34.0297 23.0658 34.0257 23.6063C34.0006 27.0428 34.0126 30.4803 34.0126 33.9168C34.0126 34.2256 34.0126 34.5355 34.0126 34.8323C37.861 35.1181 41.3789 32.6934 42.577 29.0363C43.7801 25.3622 42.3641 21.31 39.0259 19.2874Z" fill="white"/>
<path d="M14.1895 30.8892C14.3894 31.0031 14.7321 31.094 14.9009 31.0011C16.6644 30.0299 18.4047 29.0197 20.2526 27.9616C19.8979 27.7358 19.6627 27.575 19.4166 27.4321C16.2875 25.6266 13.1686 23.8022 10.0165 22.0377C9.2709 21.621 8.91117 21.1924 8.96544 20.2841C9.05989 18.6795 8.99156 17.0659 8.99156 15.4562C8.99156 13.4999 8.99156 11.5435 8.99156 9.50826C8.72428 9.48728 8.57959 9.46729 8.4359 9.4663C4.75223 9.43832 1.39111 11.9552 0.346103 15.5232C-0.713981 19.1411 0.708842 23.0338 3.96043 24.9961C7.32758 27.0274 10.7701 28.9398 14.1895 30.8892Z" fill="url(#paint4_linear)"/>
<path d="M14.1895 30.8892C14.3894 31.0031 14.7321 31.094 14.9009 31.0011C16.6644 30.0299 18.4047 29.0197 20.2526 27.9616C19.8979 27.7358 19.6627 27.575 19.4166 27.4321C16.2875 25.6266 13.1686 23.8022 10.0165 22.0377C9.2709 21.621 8.91117 21.1924 8.96544 20.2841C9.05989 18.6795 8.99156 17.0659 8.99156 15.4562C8.99156 13.4999 8.99156 11.5435 8.99156 9.50826C8.72428 9.48728 8.57959 9.46729 8.4359 9.4663C4.75223 9.43832 1.39111 11.9552 0.346103 15.5232C-0.713981 19.1411 0.708842 23.0338 3.96043 24.9961C7.32758 27.0274 10.7701 28.9398 14.1895 30.8892Z" fill="white"/>
<path d="M21.3528 28.9846C25.3648 28.9846 28.6173 25.7321 28.6173 21.7201C28.6173 17.708 25.3648 14.4556 21.3528 14.4556C17.3407 14.4556 14.0883 17.708 14.0883 21.7201C14.0883 25.7321 17.3407 28.9846 21.3528 28.9846Z" fill="#0D0D25"/>
<path d="M21.3535 25.9028C23.6635 25.9028 25.5361 24.0302 25.5361 21.7202C25.5361 19.4102 23.6635 17.5376 21.3535 17.5376C19.0435 17.5376 17.1709 19.4102 17.1709 21.7202C17.1709 24.0302 19.0435 25.9028 21.3535 25.9028Z" fill="white"/>
</g>
<path d="M55.4935 17.1338C54.753 17.1338 54.0689 16.9531 53.4413 16.5917C52.8206 16.2232 52.3269 15.7272 51.9602 15.1036C51.6005 14.4729 51.4207 13.7855 51.4207 13.0415C51.4207 12.2974 51.6005 11.6136 51.9602 10.99C52.3269 10.3594 52.8206 9.86334 53.4413 9.50194C54.0689 9.13346 54.753 8.94922 55.4935 8.94922C56.1142 8.94922 56.6995 9.08386 57.2496 9.35313C57.8068 9.62241 58.2687 9.99089 58.6355 10.4586L57.3766 11.4471C57.1579 11.1707 56.8829 10.9582 56.5514 10.8093C56.227 10.6534 55.8744 10.5755 55.4935 10.5755C55.0351 10.5755 54.619 10.6853 54.2452 10.905C53.8715 11.1176 53.5752 11.4117 53.3566 11.7872C53.145 12.1628 53.0393 12.5809 53.0393 13.0415C53.0393 13.5021 53.145 13.9202 53.3566 14.2957C53.5752 14.6713 53.8715 14.9689 54.2452 15.1886C54.619 15.4012 55.0351 15.5075 55.4935 15.5075C55.8673 15.5075 56.22 15.4295 56.5514 15.2736C56.8829 15.1177 57.1579 14.9052 57.3766 14.6359L58.6355 15.6244C58.2617 16.0921 57.7962 16.4606 57.239 16.7299C56.689 16.9991 56.1071 17.1338 55.4935 17.1338Z" fill="white"/>
<path d="M63.2097 17.1338C62.4692 17.1338 61.7851 16.9531 61.1574 16.5917C60.5368 16.2232 60.0431 15.7272 59.6764 15.1036C59.3167 14.4729 59.1369 13.7855 59.1369 13.0415C59.1369 12.2974 59.3167 11.6136 59.6764 10.99C60.0431 10.3594 60.5368 9.86334 61.1574 9.50194C61.7851 9.13346 62.4692 8.94922 63.2097 8.94922C63.9502 8.94922 64.6308 9.13346 65.2514 9.50194C65.8791 9.86334 66.3728 10.3594 66.7325 10.99C67.0992 11.6136 67.2826 12.2974 67.2826 13.0415C67.2826 13.7855 67.0992 14.4729 66.7325 15.1036C66.3728 15.7272 65.8791 16.2232 65.2514 16.5917C64.6308 16.9531 63.9502 17.1338 63.2097 17.1338ZM63.2097 15.5075C63.6681 15.5075 64.0842 15.4012 64.458 15.1886C64.8318 14.9689 65.1245 14.6713 65.3361 14.2957C65.5547 13.9202 65.664 13.5021 65.664 13.0415C65.664 12.5809 65.5547 12.1628 65.3361 11.7872C65.1245 11.4117 64.8318 11.1176 64.458 10.905C64.0842 10.6853 63.6681 10.5755 63.2097 10.5755C62.7513 10.5755 62.3352 10.6853 61.9614 10.905C61.5876 11.1176 61.2914 11.4117 61.0728 11.7872C60.8612 12.1628 60.7554 12.5809 60.7554 13.0415C60.7554 13.5021 60.8612 13.9202 61.0728 14.2957C61.2914 14.6713 61.5876 14.9689 61.9614 15.1886C62.3352 15.4012 62.7513 15.5075 63.2097 15.5075Z" fill="white"/>
<path d="M77.2919 9.05551V17.0275H75.6522V11.6916L72.944 16.411L70.257 11.6809V17.0275H68.6067V9.05551H70.3839L72.944 13.4667L75.5252 9.05551H77.2919Z" fill="white"/>
<path d="M82.2074 9.05551C82.6376 9.05551 83.0325 9.1618 83.3922 9.37439C83.7589 9.58698 84.0446 9.87751 84.2491 10.246C84.4607 10.6074 84.5665 11.0042 84.5665 11.4365C84.5665 11.8687 84.4607 12.2656 84.2491 12.6269C84.0446 12.9813 83.7625 13.2612 83.4028 13.4667C83.0431 13.6651 82.6446 13.7643 82.2074 13.7643H80.5465V17.0275H78.8962V9.05551H82.2074ZM81.9535 12.3825C82.2497 12.3825 82.493 12.2974 82.6834 12.1274C82.8809 11.9573 82.9796 11.7341 82.9796 11.4577C82.9796 11.1814 82.8809 10.9582 82.6834 10.7881C82.493 10.6109 82.2497 10.5224 81.9535 10.5224H80.5465V12.3825H81.9535Z" fill="white"/>
<path d="M88.6516 17.1338C88.0451 17.1338 87.4915 17.0168 86.9908 16.783C86.4971 16.5492 86.1057 16.2303 85.8165 15.8264C85.5344 15.4154 85.3933 14.9618 85.3933 14.4658V9.05551H87.0436V14.1576C87.0436 14.4339 87.1142 14.689 87.2552 14.9229C87.3963 15.1496 87.5902 15.3303 87.8371 15.465C88.0839 15.5925 88.3554 15.6563 88.6516 15.6563C88.9549 15.6563 89.2299 15.5925 89.4768 15.465C89.7236 15.3303 89.9176 15.1496 90.0586 14.9229C90.2067 14.689 90.2808 14.4339 90.2808 14.1576V9.05551H91.9205V14.4658C91.9205 14.9618 91.7759 15.4154 91.4868 15.8264C91.2046 16.2303 90.8132 16.5492 90.3125 16.783C89.8188 17.0168 89.2652 17.1338 88.6516 17.1338Z" fill="white"/>
<path d="M98.466 10.533H96.4455V17.0275H94.8058V10.533H92.7852V9.05551H98.466V10.533Z" fill="white"/>
<path d="M101.086 10.5224V12.3081H103.868V13.7749H101.086V15.5606H104.312V17.0275H99.4355V9.05551H104.312V10.5224H101.086Z" fill="white"/>
<path d="M111.864 17.0275H109.96L107.993 13.8812H107.242V17.0275H105.591V9.05551H108.902C109.34 9.05551 109.738 9.16535 110.098 9.38502C110.457 9.5976 110.74 9.88814 110.944 10.2566C111.156 10.6251 111.261 11.0326 111.261 11.479C111.261 12.0175 111.106 12.4923 110.796 12.9033C110.493 13.3072 110.101 13.5765 109.622 13.7111L111.864 17.0275ZM108.67 12.51C108.959 12.51 109.199 12.4179 109.389 12.2337C109.579 12.0423 109.675 11.805 109.675 11.5215C109.675 11.2381 109.579 11.0042 109.389 10.82C109.199 10.6286 108.959 10.533 108.67 10.533H107.242V12.51H108.67Z" fill="white"/>
<path d="M58.9317 20.3045L55.7474 28.2765H53.8961L50.7119 20.3045H52.5632L54.8271 26.512L57.0804 20.3045H58.9317Z" fill="white"/>
<path d="M59.6513 20.3045H61.3016V28.2765H59.6513V20.3045Z" fill="white"/>
<path d="M65.3462 28.3828C64.6903 28.3828 64.0979 28.2198 63.569 27.8938C63.0471 27.5679 62.6592 27.1462 62.4053 26.6289L63.7488 25.7892C63.8899 26.1152 64.1015 26.3738 64.3836 26.5652C64.6657 26.7565 64.9901 26.8522 65.3568 26.8522C65.6883 26.8522 65.9492 26.7813 66.1396 26.6396C66.3371 26.4908 66.4358 26.2888 66.4358 26.0337C66.4358 25.8353 66.3724 25.6688 66.2454 25.5341C66.1185 25.3924 65.9598 25.279 65.7694 25.194C65.586 25.1019 65.3286 24.9956 64.9971 24.8751C64.5246 24.698 64.1367 24.5314 63.8335 24.3755C63.5373 24.2126 63.2798 23.9787 63.0612 23.674C62.8496 23.3693 62.7438 22.9796 62.7438 22.5048C62.7438 22.0087 62.8602 21.5871 63.0929 21.2399C63.3257 20.8927 63.6289 20.634 64.0027 20.464C64.3836 20.2868 64.7891 20.1982 65.2193 20.1982C65.6918 20.1982 66.1361 20.301 66.5522 20.5065C66.9754 20.7049 67.3315 20.9742 67.6207 21.3143L66.5311 22.3347C66.1291 21.8741 65.6918 21.6438 65.2193 21.6438C64.9654 21.6438 64.7573 21.7076 64.5951 21.8351C64.4329 21.9627 64.3518 22.1505 64.3518 22.3985C64.3518 22.5827 64.4082 22.7422 64.5211 22.8768C64.641 23.0044 64.7891 23.1107 64.9654 23.1957C65.1488 23.2807 65.3991 23.3799 65.7165 23.4933C66.2031 23.6705 66.5981 23.8441 66.9013 24.0141C67.2116 24.1771 67.4761 24.4251 67.6947 24.7582C67.9204 25.0842 68.0333 25.5129 68.0333 26.0443C68.0333 26.5191 67.9134 26.9336 67.6736 27.288C67.4338 27.6423 67.1094 27.9151 66.7003 28.1064C66.2913 28.2907 65.8399 28.3828 65.3462 28.3828Z" fill="white"/>
<path d="M69.2073 20.3045H70.8576V28.2765H69.2073V20.3045Z" fill="white"/>
<path d="M76.3093 28.3828C75.5688 28.3828 74.8847 28.2021 74.257 27.8407C73.6364 27.4722 73.1427 26.9762 72.776 26.3526C72.4163 25.7219 72.2364 25.0345 72.2364 24.2905C72.2364 23.5465 72.4163 22.8626 72.776 22.239C73.1427 21.6084 73.6364 21.1123 74.257 20.751C74.8847 20.3825 75.5688 20.1982 76.3093 20.1982C77.0498 20.1982 77.7304 20.3825 78.351 20.751C78.9787 21.1123 79.4723 21.6084 79.832 22.239C80.1988 22.8626 80.3821 23.5465 80.3821 24.2905C80.3821 25.0345 80.1988 25.7219 79.832 26.3526C79.4723 26.9762 78.9787 27.4722 78.351 27.8407C77.7304 28.2021 77.0498 28.3828 76.3093 28.3828ZM76.3093 26.7565C76.7677 26.7565 77.1838 26.6502 77.5576 26.4376C77.9314 26.2179 78.224 25.9203 78.4356 25.5448C78.6543 25.1692 78.7636 24.7511 78.7636 24.2905C78.7636 23.8299 78.6543 23.4118 78.4356 23.0362C78.224 22.6607 77.9314 22.3666 77.5576 22.154C77.1838 21.9343 76.7677 21.8245 76.3093 21.8245C75.8509 21.8245 75.4348 21.9343 75.061 22.154C74.6872 22.3666 74.391 22.6607 74.1724 23.0362C73.9608 23.4118 73.855 23.8299 73.855 24.2905C73.855 24.7511 73.9608 25.1692 74.1724 25.5448C74.391 25.9203 74.6872 26.2179 75.061 26.4376C75.4348 26.6502 75.8509 26.7565 76.3093 26.7565Z" fill="white"/>
<path d="M89.0373 20.3045V28.2765H87.3447L83.3565 22.7705V28.2765H81.7062V20.3045H83.3988L87.3976 25.7892V20.3045H89.0373Z" fill="white"/>
<path d="M58.9317 31.5535L55.7474 39.5255H53.8961L50.7119 31.5535H52.5632L54.8271 37.761L57.0804 31.5535H58.9317Z" fill="white"/>
<path d="M59.6513 31.5535H61.3016V39.5255H59.6513V31.5535Z" fill="white"/>
<path d="M64.6798 33.0204V34.8061H67.462V36.2729H64.6798V38.0586H67.9063V39.5255H63.0295V31.5535H67.9063V33.0204H64.6798Z" fill="white"/>
<path d="M74.1678 33.031H72.1473V39.5255H70.5075V33.031H68.487V31.5535H74.1678V33.031Z" fill="white"/>
<path d="M82.4049 31.5535V39.5255H80.7123L76.7241 34.0195V39.5255H75.0738V31.5535H76.7664L80.7652 37.0382V31.5535H82.4049Z" fill="white"/>
<path d="M88.9926 37.9842H85.491L84.9198 39.5255H83.132L86.3162 31.5535H88.1675L91.3517 39.5255H89.5639L88.9926 37.9842ZM88.4848 36.5918L87.2471 33.2542L86.0094 36.5918H88.4848Z" fill="white"/>
<path d="M100.764 31.5535V39.5255H99.1239V34.1896L96.4157 38.909L93.7287 34.179V39.5255H92.0784V31.5535H93.8557L96.4157 35.9647L98.997 31.5535H100.764Z" fill="white"/>
<defs>
<linearGradient id="paint0_linear" x1="14.7732" y1="22.2066" x2="6.75542" y2="-0.628518" gradientUnits="userSpaceOnUse">
<stop stop-color="#59ADFF"/>
<stop offset="1" stop-color="#277CD7"/>
</linearGradient>
<linearGradient id="paint1_linear" x1="26.3741" y1="27.8982" x2="5.60493" y2="41.774" gradientUnits="userSpaceOnUse">
<stop stop-color="#3D9AFF"/>
<stop offset="0.0001" stop-color="#59ADFF"/>
<stop offset="1" stop-color="#277CD7"/>
</linearGradient>
<linearGradient id="paint2_linear" x1="27.1897" y1="23.0337" x2="33.9096" y2="43.9922" gradientUnits="userSpaceOnUse">
<stop stop-color="#59ADFF"/>
<stop offset="1" stop-color="#277CD7"/>
</linearGradient>
<linearGradient id="paint3_linear" x1="26.3826" y1="15.6064" x2="49.4611" y2="27.6726" gradientUnits="userSpaceOnUse">
<stop stop-color="#59ADFF"/>
<stop offset="1" stop-color="#277CD7"/>
</linearGradient>
<linearGradient id="paint4_linear" x1="16.5203" y1="29.1895" x2="-4.84796" y2="16.0677" gradientUnits="userSpaceOnUse">
<stop stop-color="#59ADFF"/>
<stop offset="1" stop-color="#277CD7"/>
</linearGradient>
<clipPath id="clip0">
<rect y="0.366943" width="43" height="43.587" fill="white"/>
</clipPath>
</defs>
</svg>
