<svg width="69" height="52" viewBox="0 0 69 52" fill="none" xmlns="http://www.w3.org/2000/svg">
<path d="M38.757 9.48032C38.757 12.093 36.6391 14.211 34.0264 14.211C31.4137 14.211 29.2958 12.093 29.2958 9.48032C29.2958 6.86766 31.4137 4.74968 34.0264 4.74968C36.6391 4.74968 38.757 6.86766 38.757 9.48032Z" fill="#0066FF"/>
<path d="M38.757 9.48032C38.757 12.093 36.6391 14.211 34.0264 14.211C31.4137 14.211 29.2958 12.093 29.2958 9.48032C29.2958 6.86766 31.4137 4.74968 34.0264 4.74968C36.6391 4.74968 38.757 6.86766 38.757 9.48032Z" fill="url(#paint0_linear)"/>
<path d="M28.0419 23.7292C28.0419 20.55 30.6192 17.9727 33.7984 17.9727C36.9777 17.9727 39.555 20.55 39.555 23.7292V51.1441H28.0419V23.7292Z" fill="#0066FF"/>
<path d="M28.0419 23.7292C28.0419 20.55 30.6192 17.9727 33.7984 17.9727C36.9777 17.9727 39.555 20.55 39.555 23.7292V51.1441H28.0419V23.7292Z" fill="url(#paint1_linear)"/>
<path d="M56.5397 23.7292C56.5397 20.55 59.117 17.9727 62.2962 17.9727C65.4755 17.9727 68.0528 20.55 68.0528 23.7292V51.1441H56.5397V23.7292Z" fill="#0066FF"/>
<path d="M56.5397 23.7292C56.5397 20.55 59.117 17.9727 62.2962 17.9727C65.4755 17.9727 68.0528 20.55 68.0528 23.7292V51.1441H56.5397V23.7292Z" fill="url(#paint2_linear)"/>
<path d="M53.0629 7.42849C50.1146 6.33803 45.7105 8.7204 43.8297 10.1643C43.8107 7.58047 45.3343 2.01389 51.5811 0.418009C59.3895 -1.57684 64.2606 4.99473 65.773 7.65645C67.1979 10.1643 68.0528 11.7031 68.0528 23.2163H56.5397C57.2236 12.3301 57.2236 8.96736 53.0629 7.42849Z" fill="#0066FF"/>
<path d="M53.0629 7.42849C50.1146 6.33803 45.7105 8.7204 43.8297 10.1643C43.8107 7.58047 45.3343 2.01389 51.5811 0.418009C59.3895 -1.57684 64.2606 4.99473 65.773 7.65645C67.1979 10.1643 68.0528 11.7031 68.0528 23.2163H56.5397C57.2236 12.3301 57.2236 8.96736 53.0629 7.42849Z" fill="url(#paint3_linear)"/>
<path d="M11.5131 23.7584C11.5131 20.5791 8.93582 18.0018 5.75656 18.0018C2.5773 18.0018 0 20.5791 0 23.7584V51.1733H11.5131V23.7584Z" fill="#0066FF"/>
<path d="M11.5131 23.7584C11.5131 20.5791 8.93582 18.0018 5.75656 18.0018C2.5773 18.0018 0 20.5791 0 23.7584V51.1733H11.5131V23.7584Z" fill="url(#paint4_linear)"/>
<path d="M14.9898 7.45766C17.9382 6.3672 22.3423 8.74956 24.2231 10.1935C24.2421 7.60964 22.7185 2.04305 16.4717 0.447175C8.66333 -1.54767 3.79216 5.02389 2.27983 7.68562C0.854935 10.1935 0 11.7323 0 23.2455H11.5131C10.8292 12.3593 10.8292 8.99652 14.9898 7.45766Z" fill="#0066FF"/>
<path d="M14.9898 7.45766C17.9382 6.3672 22.3423 8.74956 24.2231 10.1935C24.2421 7.60964 22.7185 2.04305 16.4717 0.447175C8.66333 -1.54767 3.79216 5.02389 2.27983 7.68562C0.854935 10.1935 0 11.7323 0 23.2455H11.5131C10.8292 12.3593 10.8292 8.99652 14.9898 7.45766Z" fill="url(#paint5_linear)"/>
<defs>
<linearGradient id="paint0_linear" x1="68" y1="26.0469" x2="2" y2="26.0469" gradientUnits="userSpaceOnUse">
<stop stop-color="#8361A0"/>
<stop offset="1" stop-color="#444490"/>
</linearGradient>
<linearGradient id="paint1_linear" x1="68" y1="26.0469" x2="2" y2="26.0469" gradientUnits="userSpaceOnUse">
<stop stop-color="#8361A0"/>
<stop offset="1" stop-color="#444490"/>
</linearGradient>
<linearGradient id="paint2_linear" x1="68" y1="26.0469" x2="2" y2="26.0469" gradientUnits="userSpaceOnUse">
<stop stop-color="#8361A0"/>
<stop offset="1" stop-color="#444490"/>
</linearGradient>
<linearGradient id="paint3_linear" x1="68" y1="26.0469" x2="2" y2="26.0469" gradientUnits="userSpaceOnUse">
<stop stop-color="#8361A0"/>
<stop offset="1" stop-color="#444490"/>
</linearGradient>
<linearGradient id="paint4_linear" x1="68" y1="26.0469" x2="2" y2="26.0469" gradientUnits="userSpaceOnUse">
<stop stop-color="#8361A0"/>
<stop offset="1" stop-color="#444490"/>
</linearGradient>
<linearGradient id="paint5_linear" x1="68" y1="26.0469" x2="2" y2="26.0469" gradientUnits="userSpaceOnUse">
<stop stop-color="#8361A0"/>
<stop offset="1" stop-color="#444490"/>
</linearGradient>
</defs>
</svg>
