<svg width="150" height="25" viewBox="0 0 150 25" fill="none" xmlns="http://www.w3.org/2000/svg">
<path d="M19.2333 1.02498H15.2987V10.1905H5.03508V1.02498L0.856445 5.38663V24.3278H5.03508V14.3997H15.2987V24.3278H19.2333V1.02498Z" fill="black"/>
<path fill-rule="evenodd" clip-rule="evenodd" d="M44.0154 20.7591C48.5215 20.7591 52.1744 17.1062 52.1744 12.6001C52.1744 8.09401 48.5215 4.4411 44.0154 4.4411C39.5093 4.4411 35.8564 8.09401 35.8564 12.6001C35.8564 17.1062 39.5093 20.7591 44.0154 20.7591ZM44.0154 24.3278C50.4924 24.3278 55.743 19.0771 55.743 12.6001C55.743 6.12312 50.4924 0.872478 44.0154 0.872478C37.5384 0.872478 32.2877 6.12312 32.2877 12.6001C32.2877 19.0771 37.5384 24.3278 44.0154 24.3278Z" fill="black"/>
<path d="M78.7408 11.1513H86.9761V21.9487C86.9761 22.5892 84.0175 24.526 79.4271 24.3735C74.8367 24.221 74.5738 24.2642 71.695 22.8637C68.8737 21.4912 65.3785 16.226 67.1657 9.07725C68.6754 3.03805 74.2876 1.23849 79.0915 1.04024C82.9347 0.881632 85.9492 2.05185 86.9761 2.65679V6.78968H84.6885C84.7241 6.54567 84.5787 5.9814 83.7124 5.67639C82.6297 5.29513 81.0894 4.60885 77.0937 5.23412C73.0981 5.8594 71.207 9.56527 71.146 12.5391C71.085 15.513 71.7408 17.8158 73.8759 19.4628C75.5839 20.7805 80.6827 20.5355 82.8127 20.2101V14.3997H78.7408V11.1513Z" fill="black"/>
<path fill-rule="evenodd" clip-rule="evenodd" d="M98.6732 24.2363L107.976 1.04023H111.819L120.939 24.2363H116.882L114.259 18.5783C114.259 18.5783 108.281 18.5631 105.536 18.5783L102.913 24.2363H98.6732ZM106.664 15.1775C107.62 12.5798 109.87 7.02453 110.065 6.74392L112.902 15.1775H106.664Z" fill="black"/>
<path fill-rule="evenodd" clip-rule="evenodd" d="M132.59 1.04023V24.282H137.013V15.9705H141.176L145.736 24.282H149.945V23.2755L145.385 15.7112C146.905 15.0148 149.945 12.7099 149.945 9.062C149.945 4.50209 146.85 1.49774 144.013 1.04023C141.744 0.674217 135.452 0.887724 132.59 1.04023ZM137.013 11.7461V5.15787H142.991C144.806 5.56963 145.385 7.14044 145.385 8.40623C145.385 9.67202 144.013 11.7461 143.601 11.7461H137.013Z" fill="black"/>
</svg>
