<svg width="120" height="52" viewBox="0 0 120 52" fill="none" xmlns="http://www.w3.org/2000/svg">
<path d="M48.8145 35.8962C51.7879 28.6279 56.5233 25.8472 58.5194 25.3654C49.2274 25.0213 44.8912 32.9366 41.9316 39.5442C39.5638 44.8302 33.695 49.0426 31.0566 50.488C37.6642 50.5568 45.0977 44.9817 48.8145 35.8962Z" fill="#F61C22"/>
<path d="M43.5146 33.6937C45.4418 29.5089 49.5028 26.3978 51.2923 25.3654C47.8784 26.4667 44.0882 29.3575 42.6199 30.6652C43.3082 28.738 43.5146 22.9564 43.5146 17.7942C43.5146 12.632 40.3485 3.06481 35.2552 0.586968C30.1618 -1.89088 27.3398 4.64788 26.1009 10.223C25.1098 14.6831 27.4775 27.9121 28.7852 33.969C18.4609 29.6328 13.2987 29.0133 10.752 29.0133C8.20536 29.0133 -1.15539 29.8393 0.496509 36.4469C1.81803 41.7329 14.7212 43.4215 21.0075 43.6051C16.2584 41.8155 6.14049 38.6494 7.86121 34.382C10.6144 30.2523 24.5408 34.8409 31.1942 37.617C31.1942 37.4105 31.2906 35.7724 30.0241 28.6692C28.7577 21.566 29.4965 16.8994 30.0241 15.454C35.8058 5.54266 40.0732 17.6566 40.0732 23.9888C40.0732 30.3211 39.6602 31.0094 37.4577 37.5481C35.6957 42.7791 28.3264 48.4461 24.862 50.6256C36.2224 49.5307 41.0504 39.0454 43.4732 33.7838L43.5146 33.6937Z" fill="#F61C22"/>
<path d="M107.744 25.5825C107.194 25.0318 106.368 25.1007 106.368 25.1007C105.404 25.1007 104.785 26.2019 104.991 27.0967C105.198 27.9915 106.574 27.8538 106.712 27.6473C106.85 27.4408 107.469 26.959 107.538 28.3356C107.607 29.7122 106.024 29.9875 105.817 30.4693C105.611 30.9511 106.093 31.2953 107.744 29.781C109.396 28.2668 108.433 26.2707 107.744 25.5825Z" fill="#F61C22"/>
<path d="M60.1837 25.1006C60.1607 25.2382 60.1286 25.5273 60.1837 25.5824H61.2161C61.9044 25.5824 62.3174 26.959 62.3174 27.0966C62.3174 27.2343 62.455 37.2145 62.3174 38.7287C62.2072 39.9401 60.849 40.0594 60.1837 39.9676V40.3806H65.4835V39.9676H64.5887C63.9004 39.9676 63.3498 39.2794 63.3498 38.7976V27.7161L69.2003 40.3806H69.6132L75.4637 27.7161V38.7976C75.4637 39.7336 74.0412 40.0135 73.33 40.0365V40.5183H79.7311V39.8988C77.8039 40.1053 77.8727 39.417 77.6662 39.2794C77.4597 39.1417 77.5974 30.0563 77.5286 27.7161C77.4735 25.8439 78.974 25.5136 79.7311 25.5824V25.1006H75.4637L69.9574 36.9392L64.5199 25.1006H60.1837Z" fill="black"/>
<path d="M87.3023 25.1006H80.7635V25.72H81.6583C82.6494 25.72 82.9431 26.4542 82.9661 26.8213V38.1093C82.9661 38.4534 82.8972 38.8664 82.6907 39.4858C82.5256 39.9814 81.383 40.0135 80.8324 39.9676V40.3806H87.3023V39.8988H86.4763C85.7192 39.8988 85.0998 39.2794 85.0998 38.7976V26.959C85.0998 25.6925 86.5681 25.5136 87.3023 25.5824V25.1006Z" fill="black"/>
<path d="M91.6385 25.1006H88.4724V25.7889H88.61C89.2708 25.8439 90.1702 26.7754 90.5372 27.2343V38.7976C90.4822 39.8438 89.0918 40.0135 88.4035 39.9676V40.3806H93.6346V39.8988H92.7398C91.5697 39.7612 91.5009 38.7976 91.5009 38.6599V28.4732L101.275 40.4495H102.032V30.8134C102.009 29.5974 101.977 27.0003 102.032 26.3395C102.087 25.6787 103.431 25.6053 104.097 25.6512V25.1006H98.8656V25.6512H100.036C100.724 25.6512 100.93 26.8213 100.93 26.959V36.5262L91.6385 25.1006Z" fill="black"/>
<path d="M118.275 30.1939H118C117.381 27.6473 116.899 27.3719 115.866 26.6148C114.352 25.6512 110.979 26.2707 111.53 28.7485C112.631 31.6393 117.794 31.777 118.895 34.599C119.996 37.421 118.413 38.7287 117.243 39.83C116.073 40.9313 112.975 40.243 111.53 39.6923C110.374 39.2518 110.085 39.9676 110.085 40.3806H109.741V35.3561H110.222C110.222 35.9756 110.539 37.4898 111.805 38.5911C113.072 39.6923 115.155 39.5317 115.866 39.3482C117.518 38.4534 117.725 36.595 116.761 35.6314C114.627 33.2224 108.983 32.8783 109.534 28.6797C110.085 24.4811 114.972 24.6188 116.348 25.6512C117.449 26.4772 117.908 25.6742 118 25.1694H118.275V30.1939Z" fill="black"/>
<path d="M63.4503 51.1734C62.8309 51.1734 62.2962 51.0462 61.8463 50.7919C61.3964 50.5376 61.0639 50.1953 60.8487 49.765C60.8096 49.6867 60.8063 49.6117 60.8389 49.54C60.878 49.4683 60.94 49.4194 61.0247 49.3933C61.0965 49.3672 61.1682 49.3705 61.2399 49.4031C61.3116 49.4357 61.3671 49.4878 61.4062 49.5596C61.5757 49.8791 61.8333 50.1301 62.1789 50.3127C62.531 50.4953 62.9548 50.5865 63.4503 50.5865C64.0111 50.5865 64.4512 50.4463 64.7707 50.166C65.0967 49.8856 65.2597 49.4878 65.2597 48.9727C65.2597 48.5424 65.1033 48.1805 64.7903 47.8871C64.4838 47.5872 64.0143 47.3948 63.3819 47.31C62.6516 47.2057 62.081 46.971 61.6703 46.6058C61.2595 46.2342 61.0541 45.7843 61.0541 45.2561C61.0541 44.8714 61.1486 44.5356 61.3377 44.2487C61.5333 43.9618 61.8039 43.7401 62.1495 43.5836C62.5016 43.4206 62.9059 43.3391 63.3623 43.3391C63.7014 43.3391 64.0143 43.3945 64.3012 43.5054C64.5881 43.6162 64.8392 43.7629 65.0543 43.9455C65.2695 44.1216 65.4358 44.3074 65.5532 44.503C65.5988 44.5747 65.6086 44.653 65.5825 44.7377C65.5629 44.816 65.5108 44.8714 65.426 44.904C65.3543 44.9301 65.2826 44.9333 65.2108 44.9138C65.1391 44.8877 65.0804 44.8421 65.0348 44.7769C64.9435 44.6399 64.8261 44.5063 64.6827 44.3759C64.5392 44.2454 64.3599 44.1379 64.1448 44.0531C63.9296 43.9683 63.6688 43.9259 63.3623 43.9259C62.8276 43.9259 62.4071 44.0466 62.1006 44.2878C61.7941 44.5291 61.6409 44.8714 61.6409 45.3148C61.6409 45.6669 61.7876 45.9701 62.081 46.2244C62.3745 46.4722 62.8407 46.6515 63.4797 46.7623C64.3208 46.9058 64.9239 47.1666 65.2891 47.5448C65.6607 47.9164 65.8466 48.3924 65.8466 48.9727C65.8466 49.4292 65.7455 49.8236 65.5434 50.1562C65.3412 50.4822 65.0609 50.7332 64.7022 50.9093C64.3436 51.0853 63.9263 51.1734 63.4503 51.1734Z" fill="black"/>
<path d="M73.031 51.0756C72.9462 51.0756 72.8745 51.0495 72.8158 50.9973C72.7636 50.9386 72.7375 50.8669 72.7375 50.7821V43.7303C72.7375 43.6456 72.7636 43.5771 72.8158 43.5249C72.8745 43.4663 72.9462 43.4369 73.031 43.4369C73.1157 43.4369 73.1842 43.4663 73.2364 43.5249C73.295 43.5771 73.3244 43.6456 73.3244 43.7303V46.9579H78.2636V43.7303C78.2636 43.6456 78.2897 43.5771 78.3418 43.5249C78.4005 43.4663 78.4722 43.4369 78.557 43.4369C78.6352 43.4369 78.7037 43.4663 78.7624 43.5249C78.8211 43.5771 78.8504 43.6456 78.8504 43.7303V50.7821C78.8504 50.8669 78.8211 50.9386 78.7624 50.9973C78.7037 51.0495 78.6352 51.0756 78.557 51.0756C78.4722 51.0756 78.4005 51.0495 78.3418 50.9973C78.2897 50.9386 78.2636 50.8669 78.2636 50.7821V47.4861H73.3244V50.7821C73.3244 50.8669 73.295 50.9386 73.2364 50.9973C73.1842 51.0495 73.1157 51.0756 73.031 51.0756Z" fill="black"/>
<path d="M89.6208 51.1734C89.06 51.1734 88.5416 51.0756 88.0657 50.88C87.5897 50.6843 87.1724 50.4105 86.8137 50.0584C86.4616 49.6998 86.1878 49.2825 85.9922 48.8065C85.7966 48.3305 85.6988 47.8121 85.6988 47.2514C85.6988 46.6906 85.7966 46.1755 85.9922 45.706C86.1878 45.23 86.4616 44.816 86.8137 44.4639C87.1724 44.1053 87.5897 43.8281 88.0657 43.6325C88.5416 43.4369 89.06 43.3391 89.6208 43.3391C90.1815 43.3391 90.6966 43.4369 91.1661 43.6325C91.6421 43.8281 92.0561 44.1053 92.4082 44.4639C92.7669 44.816 93.044 45.23 93.2396 45.706C93.4352 46.1755 93.533 46.6906 93.533 47.2514C93.533 47.8121 93.4352 48.3305 93.2396 48.8065C93.044 49.2825 92.7669 49.6998 92.4082 50.0584C92.0561 50.4105 91.6421 50.6843 91.1661 50.88C90.6966 51.0756 90.1815 51.1734 89.6208 51.1734ZM89.6208 50.5865C90.0902 50.5865 90.5271 50.505 90.9314 50.342C91.3356 50.1725 91.6877 49.9378 91.9877 49.6378C92.2941 49.3314 92.5289 48.976 92.6919 48.5717C92.8614 48.1675 92.9462 47.7273 92.9462 47.2514C92.9462 46.7819 92.8614 46.345 92.6919 45.9408C92.5289 45.5365 92.2941 45.1844 91.9877 44.8844C91.6877 44.578 91.3356 44.3433 90.9314 44.1802C90.5271 44.0107 90.0902 43.9259 89.6208 43.9259C89.1448 43.9259 88.7047 44.0107 88.3004 44.1802C87.8961 44.3433 87.5408 44.578 87.2343 44.8844C86.9344 45.1844 86.6996 45.5365 86.5301 45.9408C86.3671 46.345 86.2856 46.7819 86.2856 47.2514C86.2856 47.7273 86.3671 48.1675 86.5301 48.5717C86.6996 48.976 86.9344 49.3314 87.2343 49.6378C87.5408 49.9378 87.8961 50.1725 88.3004 50.342C88.7047 50.505 89.1448 50.5865 89.6208 50.5865Z" fill="black"/>
<path d="M100.672 51.0756C100.587 51.0756 100.515 51.0495 100.457 50.9973C100.405 50.9386 100.378 50.8669 100.378 50.7821V43.7303C100.378 43.6456 100.405 43.5771 100.457 43.5249C100.515 43.4663 100.587 43.4369 100.672 43.4369H105.376C105.455 43.4369 105.523 43.4663 105.582 43.5249C105.64 43.5771 105.67 43.6456 105.67 43.7303C105.67 43.8086 105.64 43.877 105.582 43.9357C105.523 43.9944 105.455 44.0238 105.376 44.0238H100.965V46.9579H104.203C104.287 46.9579 104.356 46.9873 104.408 47.046C104.467 47.0981 104.496 47.1666 104.496 47.2514C104.496 47.3361 104.467 47.4078 104.408 47.4665C104.356 47.5252 104.287 47.5546 104.203 47.5546H100.965V50.4887H105.376C105.455 50.4887 105.523 50.5181 105.582 50.5768C105.64 50.6354 105.67 50.7039 105.67 50.7821C105.67 50.8669 105.64 50.9386 105.582 50.9973C105.523 51.0495 105.455 51.0756 105.376 51.0756H100.672Z" fill="black"/>
<path d="M114.654 51.1734C114.034 51.1734 113.5 51.0462 113.05 50.7919C112.6 50.5376 112.267 50.1953 112.052 49.765C112.013 49.6867 112.01 49.6117 112.042 49.54C112.081 49.4683 112.143 49.4194 112.228 49.3933C112.3 49.3672 112.372 49.3705 112.443 49.4031C112.515 49.4357 112.57 49.4878 112.61 49.5596C112.779 49.8791 113.037 50.1301 113.382 50.3127C113.734 50.4953 114.158 50.5865 114.654 50.5865C115.214 50.5865 115.655 50.4463 115.974 50.166C116.3 49.8856 116.463 49.4878 116.463 48.9727C116.463 48.5424 116.307 48.1805 115.994 47.8871C115.687 47.5872 115.218 47.3948 114.585 47.31C113.855 47.2057 113.284 46.971 112.874 46.6058C112.463 46.2342 112.257 45.7843 112.257 45.2561C112.257 44.8714 112.352 44.5356 112.541 44.2487C112.737 43.9618 113.007 43.7401 113.353 43.5836C113.705 43.4206 114.109 43.3391 114.566 43.3391C114.905 43.3391 115.218 43.3945 115.505 43.5054C115.791 43.6162 116.043 43.7629 116.258 43.9455C116.473 44.1216 116.639 44.3074 116.757 44.503C116.802 44.5747 116.812 44.653 116.786 44.7377C116.766 44.816 116.714 44.8714 116.629 44.904C116.558 44.9301 116.486 44.9333 116.414 44.9138C116.342 44.8877 116.284 44.8421 116.238 44.7769C116.147 44.6399 116.029 44.5063 115.886 44.3759C115.743 44.2454 115.563 44.1379 115.348 44.0531C115.133 43.9683 114.872 43.9259 114.566 43.9259C114.031 43.9259 113.61 44.0466 113.304 44.2878C112.998 44.5291 112.844 44.8714 112.844 45.3148C112.844 45.6669 112.991 45.9701 113.284 46.2244C113.578 46.4722 114.044 46.6515 114.683 46.7623C115.524 46.9058 116.127 47.1666 116.492 47.5448C116.864 47.9164 117.05 48.3924 117.05 48.9727C117.05 49.4292 116.949 49.8236 116.747 50.1562C116.545 50.4822 116.264 50.7332 115.906 50.9093C115.547 51.0853 115.13 51.1734 114.654 51.1734Z" fill="black"/>
</svg>
