<svg width="147" height="52" viewBox="0 0 147 52" fill="none" xmlns="http://www.w3.org/2000/svg">
<path d="M17.7194 10.3369H41.5674V17.5549C41.5674 21.318 38.5168 24.3686 34.7537 24.3686H24.7641V33.8963C24.7641 37.6594 21.7135 40.71 17.9504 40.71H10.9056V17.1506C10.9056 13.3875 13.9563 10.3369 17.7194 10.3369Z" fill="#44549C"/>
<path d="M7.55653 0.000732422H31.4046V7.21867C31.4046 10.9818 28.354 14.0324 24.5909 14.0324H14.6012V23.5601C14.6012 27.3232 11.5506 30.3738 7.78751 30.3738H0.742798V6.81447C0.742798 3.05135 3.79341 0.000732422 7.55653 0.000732422Z" fill="#E9A646"/>
<path d="M135.285 19.0563C133.206 18.9177 128.645 20.8079 126.624 21.7702L126.855 30.2585C127.086 27.7756 128.76 26.7362 129.857 26.1587C130.954 25.5813 134.361 25.2926 136.209 26.7362C137.687 27.8911 138.057 30.22 138.057 31.2402H146.141V27.3714C146.141 27.048 145.795 25.8508 145.621 25.2926C143.199 19.5839 137.898 19.2305 135.296 19.057L135.285 19.0563Z" fill="#3F3D53"/>
<path d="M118.713 51.1039V19.6337H123.39C125.303 19.6337 126.855 21.1849 126.855 23.0983V51.1039H118.713Z" fill="#3F3D53"/>
<path d="M90.5917 13.5707C90.5917 16.1857 88.4718 18.3056 85.8567 18.3056C83.2417 18.3056 81.1218 16.1857 81.1218 13.5707C81.1218 10.9556 83.2417 8.83569 85.8567 8.83569C88.4718 8.83569 90.5917 10.9556 90.5917 13.5707Z" fill="#3F3D53"/>
<path d="M90.5917 13.5707C90.5917 16.1857 88.4718 18.3056 85.8567 18.3056C83.2417 18.3056 81.1218 16.1857 81.1218 13.5707C81.1218 10.9556 83.2417 8.83569 85.8567 8.83569C88.4718 8.83569 90.5917 10.9556 90.5917 13.5707Z" fill="#3F3D53"/>
<path d="M109.07 13.5707C109.07 16.1857 106.95 18.3056 104.335 18.3056C101.72 18.3056 99.5997 16.1857 99.5997 13.5707C99.5997 10.9556 101.72 8.83569 104.335 8.83569C106.95 8.83569 109.07 10.9556 109.07 13.5707Z" fill="#3F3D53"/>
<path d="M81.6992 20.2689H85.8567C87.9615 20.2689 89.6678 21.9752 89.6678 24.08V51.2194H81.6992V20.2689Z" fill="#3F3D53"/>
<path d="M100.177 20.2689H104.335C106.439 20.2689 108.146 21.9752 108.146 24.08V51.2194H100.177V20.2689Z" fill="#3F3D53"/>
<path d="M52.1345 14.2636C52.1345 12.095 53.8925 10.337 56.0611 10.337H76.3868V16.8043H52.1345V14.2636Z" fill="#3F3D53"/>
<path d="M76.3868 28.122C76.3868 30.2906 74.6288 32.0486 72.4602 32.0486H52.1345V25.5813H76.3868V28.122Z" fill="#3F3D53"/>
<path d="M52.1345 15.5339H60.2186V51.2194H52.1345V15.5339Z" fill="#3F3D53"/>
<path d="M138.057 31.2402H146.256V51.2194H142.445C140.022 51.2194 138.057 49.2546 138.057 46.8309V31.2402Z" fill="#3F3D53"/>
</svg>
