<svg width="138" height="51" viewBox="0 0 138 51" fill="none" xmlns="http://www.w3.org/2000/svg">
<g clip-path="url(#clip0)">
<path d="M24.1954 26.2563C24.1954 24.7121 23.5515 23.4877 22.2637 22.5856C21.107 21.7812 19.7215 21.3779 18.1117 21.3779C15.4097 21.3779 13.5233 22.5402 12.4644 24.8577C11.7561 26.4043 11.3674 28.7552 11.3078 31.9128C11.272 32.6861 11.272 33.2303 11.3078 33.5549C11.4676 36.6433 11.9159 38.9822 12.6576 40.5598C13.7522 42.9752 15.5695 44.1829 18.1117 44.1829C19.8169 44.1829 21.2549 43.7151 22.4354 42.7795C23.6087 41.8439 24.1954 40.5407 24.1954 38.8677L34.4811 38.8175C34.4811 39.8152 34.3357 40.8439 34.0447 41.9107C33.1766 45.0993 31.2115 47.4622 28.159 49.0135C25.6144 50.3334 22.5212 50.9945 18.8868 50.9945C7.14152 50.9945 1.05545 45.2927 0.635721 33.889V33.3568V32.92C0.57133 20.6499 6.39984 14.5161 18.1141 14.5161C29.0247 14.5161 34.4811 18.4422 34.4811 26.304L24.1954 26.2563Z" fill="#A02225"/>
<path d="M46.8908 15.6443H37.1131V50.6184H46.8908V15.6443Z" fill="#A02225"/>
<path d="M88.2613 38.8211H98.1703C98.1703 40.4964 98.7506 41.8138 99.9062 42.7803C100.646 43.458 101.838 43.7969 103.485 43.7969C104.772 43.7969 105.918 43.5726 106.919 43.1192C108.208 42.5416 108.867 41.6682 108.901 40.5131C108.901 40.284 108.867 40.043 108.803 39.7829C108.447 38.5634 107.564 37.6899 106.145 37.1745C105.016 36.8236 103.875 36.4704 102.712 36.1149C98.3327 35.1483 95.3027 34.177 93.6217 33.2153C90.7899 31.5448 89.257 28.9793 89.0301 25.5309V25.2445V24.9987C88.9991 21.5574 90.4723 18.9323 93.4546 17.1257C96.4345 15.3215 99.9038 14.4529 103.87 14.5197C109.51 14.6152 113.294 15.7225 115.228 17.8369C117.062 19.8893 117.986 22.438 117.986 25.4808L108.077 25.433C108.077 22.9559 106.546 21.7173 103.483 21.7173C102.42 21.7173 101.501 21.9559 100.728 22.438C99.8274 22.9893 99.357 23.7625 99.3284 24.76V24.9032V25.0941C99.5863 26.8052 100.969 27.8386 103.483 28.187C108.442 28.8958 112.506 30.2322 115.663 32.1987C117.953 33.6473 119.096 35.9979 119.096 39.2507C119.096 43.3769 117.518 46.434 114.359 48.4338C111.718 50.1401 108.22 50.9945 103.87 50.9945C98.7458 50.9945 94.9087 49.9659 92.3658 47.9016C89.6271 45.7132 88.2589 42.7015 88.2589 38.8689V38.8211H88.2613Z" fill="#A02225"/>
<path d="M63.5501 15.6443H75.319L89.0101 50.6184H78.0153L75.7025 44.1471H62.0567L59.7915 50.6184H49.5232L63.5501 15.6443ZM73.0491 36.948L68.8998 22.841L64.3195 36.948H73.0491Z" fill="#A02225"/>
<path d="M84.4971 13.4658C94.3013 9.32644 112.405 6.51529 114.871 6.26774C129.057 4.86335 130.562 10.0548 129.165 14.2465C128.402 16.5364 126.103 20.114 122.47 23.5417C130.349 19.5189 136.235 13.204 136.745 6.1035C136.907 3.84934 136.902 2.80438 137.146 2.02364C124.015 -5.59575 84.4971 13.4658 84.4971 13.4658Z" fill="#00A8E5"/>
</g>
<defs>
<clipPath id="clip0">
<rect x="0.635376" y="0.225586" width="136.512" height="50.7689" fill="white"/>
</clipPath>
</defs>
</svg>
