<svg width="124" height="50" viewBox="0 0 124 50" fill="none" xmlns="http://www.w3.org/2000/svg">
<path d="M52.0394 46.5783H54.0736V47.3479H51.0814V42.6984H52.0394V46.5783ZM54.4217 45.5884C54.4217 45.2456 54.4876 44.9401 54.6196 44.6719C54.7516 44.4036 54.9411 44.1961 55.1881 44.0492C55.4371 43.9023 55.7256 43.8288 56.0535 43.8288C56.5197 43.8288 56.8997 43.9715 57.1935 44.2567C57.4894 44.542 57.6544 44.9295 57.6885 45.4191L57.6948 45.6554C57.6948 46.1855 57.5469 46.6113 57.251 46.9328C56.9551 47.2521 56.558 47.4118 56.0598 47.4118C55.5617 47.4118 55.1636 47.2521 54.8655 46.9328C54.5696 46.6134 54.4217 46.1791 54.4217 45.6299V45.5884ZM55.3445 45.6554C55.3445 45.9833 55.4063 46.2345 55.5297 46.4091C55.6532 46.5815 55.8299 46.6677 56.0598 46.6677C56.2834 46.6677 56.458 46.5826 56.5836 46.4122C56.7092 46.2398 56.772 45.9652 56.772 45.5884C56.772 45.2669 56.7092 45.0178 56.5836 44.8411C56.458 44.6644 56.2813 44.5761 56.0535 44.5761C55.8278 44.5761 55.6532 44.6644 55.5297 44.8411C55.4063 45.0157 55.3445 45.2871 55.3445 45.6554ZM60.2655 47.3479C60.2229 47.2649 60.1921 47.1616 60.1729 47.0381C59.9494 47.2872 59.6588 47.4118 59.3011 47.4118C58.9626 47.4118 58.6816 47.3138 58.4581 47.118C58.2367 46.9221 58.1259 46.6752 58.1259 46.3771C58.1259 46.0109 58.2611 45.7299 58.5315 45.5341C58.804 45.3382 59.1968 45.2392 59.7099 45.2371H60.1346V45.0391C60.1346 44.8794 60.0931 44.7517 60.01 44.6559C59.9291 44.5601 59.8003 44.5122 59.6236 44.5122C59.4682 44.5122 59.3458 44.5495 59.2564 44.624C59.1691 44.6985 59.1255 44.8007 59.1255 44.9305H58.2026C58.2026 44.7304 58.2643 44.5452 58.3878 44.3749C58.5113 44.2046 58.6859 44.0715 58.9115 43.9757C59.1372 43.8778 59.3905 43.8288 59.6715 43.8288C60.0973 43.8288 60.4347 43.9363 60.6838 44.1513C60.935 44.3642 61.0606 44.6644 61.0606 45.0519V46.5496C61.0628 46.8774 61.1085 47.1254 61.198 47.2936V47.3479H60.2655ZM59.5023 46.706C59.6385 46.706 59.7641 46.6762 59.8791 46.6166C59.9941 46.5549 60.0792 46.4729 60.1346 46.3707V45.7768H59.7897C59.3277 45.7768 59.0818 45.9364 59.052 46.2558L59.0488 46.3101C59.0488 46.425 59.0893 46.5198 59.1702 46.5943C59.2511 46.6688 59.3618 46.706 59.5023 46.706ZM61.6259 45.5947C61.6259 45.0561 61.7462 44.6272 61.9867 44.3078C62.2294 43.9885 62.5605 43.8288 62.9799 43.8288C63.3162 43.8288 63.594 43.9544 63.8133 44.2056V42.4429H64.7394V47.3479H63.9059L63.8612 46.9807C63.6313 47.2681 63.3354 47.4118 62.9735 47.4118C62.5668 47.4118 62.2401 47.2521 61.9931 46.9328C61.7483 46.6113 61.6259 46.1653 61.6259 45.5947ZM62.5488 45.6618C62.5488 45.9854 62.6052 46.2334 62.718 46.4059C62.8308 46.5783 62.9948 46.6645 63.2098 46.6645C63.4951 46.6645 63.6962 46.5442 63.8133 46.3037V44.9401C63.6984 44.6995 63.4993 44.5793 63.2162 44.5793C62.7712 44.5793 62.5488 44.9401 62.5488 45.6618ZM66.4287 47.3479H65.5026V43.8927H66.4287V47.3479ZM65.4483 42.9985C65.4483 42.8602 65.4941 42.7463 65.5856 42.6569C65.6793 42.5674 65.806 42.5227 65.9656 42.5227C66.1232 42.5227 66.2488 42.5674 66.3425 42.6569C66.4361 42.7463 66.483 42.8602 66.483 42.9985C66.483 43.1391 66.4351 43.254 66.3393 43.3434C66.2456 43.4328 66.1211 43.4775 65.9656 43.4775C65.8102 43.4775 65.6846 43.4328 65.5888 43.3434C65.4952 43.254 65.4483 43.1391 65.4483 42.9985ZM68.0413 43.8927L68.0701 44.2919C68.317 43.9832 68.6481 43.8288 69.0632 43.8288C69.4294 43.8288 69.7019 43.9363 69.8807 44.1513C70.0595 44.3664 70.1511 44.6878 70.1553 45.1157V47.3479H69.2325V45.1381C69.2325 44.9422 69.1899 44.8007 69.1047 44.7134C69.0196 44.624 68.878 44.5793 68.68 44.5793C68.4203 44.5793 68.2255 44.69 68.0956 44.9114V47.3479H67.1727V43.8927H68.0413ZM70.7238 45.5947C70.7238 45.0646 70.8494 44.6378 71.1006 44.3142C71.3539 43.9906 71.6945 43.8288 72.1224 43.8288C72.5014 43.8288 72.7962 43.9587 73.007 44.2184L73.0453 43.8927H73.882V47.2329C73.882 47.5352 73.8128 47.7982 73.6744 48.0217C73.5382 48.2452 73.3455 48.4155 73.0964 48.5326C72.8473 48.6497 72.5557 48.7083 72.2214 48.7083C71.9681 48.7083 71.7211 48.6572 71.4806 48.555C71.24 48.4549 71.058 48.3251 70.9345 48.1654L71.3433 47.6034C71.5732 47.861 71.8521 47.9898 72.1799 47.9898C72.4248 47.9898 72.6153 47.9238 72.7515 47.7918C72.8878 47.6619 72.9559 47.4767 72.9559 47.2361V47.0509C72.743 47.2915 72.4631 47.4118 72.1161 47.4118C71.7009 47.4118 71.3646 47.25 71.107 46.9264C70.8515 46.6007 70.7238 46.1696 70.7238 45.6331V45.5947ZM71.6466 45.6618C71.6466 45.9748 71.7094 46.2206 71.835 46.3995C71.9606 46.5762 72.1331 46.6645 72.3524 46.6645C72.6334 46.6645 72.8346 46.5591 72.9559 46.3484V44.8954C72.8324 44.6846 72.6334 44.5793 72.3588 44.5793C72.1373 44.5793 71.9628 44.6697 71.835 44.8507C71.7094 45.0316 71.6466 45.302 71.6466 45.6618ZM77.1967 47.3479H76.2706V43.8927H77.1967V47.3479ZM76.2163 42.9985C76.2163 42.8602 76.2621 42.7463 76.3536 42.6569C76.4473 42.5674 76.574 42.5227 76.7337 42.5227C76.8912 42.5227 77.0168 42.5674 77.1105 42.6569C77.2041 42.7463 77.251 42.8602 77.251 42.9985C77.251 43.1391 77.2031 43.254 77.1073 43.3434C77.0136 43.4328 76.8891 43.4775 76.7337 43.4775C76.5782 43.4775 76.4526 43.4328 76.3568 43.3434C76.2632 43.254 76.2163 43.1391 76.2163 42.9985ZM78.8093 43.8927L78.8381 44.2919C79.085 43.9832 79.4161 43.8288 79.8312 43.8288C80.1974 43.8288 80.4699 43.9363 80.6487 44.1513C80.8275 44.3664 80.9191 44.6878 80.9233 45.1157V47.3479H80.0005V45.1381C80.0005 44.9422 79.9579 44.8007 79.8727 44.7134C79.7876 44.624 79.646 44.5793 79.448 44.5793C79.1883 44.5793 78.9935 44.69 78.8636 44.9114V47.3479H77.9407V43.8927H78.8093ZM82.7308 43.0433V43.8927H83.3216V44.5697H82.7308V46.2941C82.7308 46.4218 82.7553 46.5134 82.8042 46.5687C82.8532 46.6241 82.9469 46.6517 83.0852 46.6517C83.1874 46.6517 83.2779 46.6443 83.3567 46.6294V47.3287C83.1757 47.3841 82.9894 47.4118 82.7978 47.4118C82.1507 47.4118 81.8207 47.085 81.8079 46.4314V44.5697H81.3034V43.8927H81.8079V43.0433H82.7308ZM85.426 47.4118C84.9193 47.4118 84.5063 47.2564 84.187 46.9455C83.8698 46.6347 83.7111 46.2206 83.7111 45.7033V45.6139C83.7111 45.2669 83.7782 44.9571 83.9123 44.6846C84.0465 44.41 84.2359 44.1992 84.4807 44.0524C84.7277 43.9033 85.0087 43.8288 85.3238 43.8288C85.7964 43.8288 86.1679 43.9778 86.4383 44.2759C86.7108 44.5739 86.847 44.9965 86.847 45.5437V45.9205H84.6468C84.6766 46.1461 84.766 46.3271 84.915 46.4633C85.0662 46.5996 85.2567 46.6677 85.4867 46.6677C85.8422 46.6677 86.12 46.5389 86.3201 46.2813L86.7736 46.7891C86.6352 46.9849 86.4479 47.1382 86.2116 47.2489C85.9752 47.3575 85.7134 47.4118 85.426 47.4118ZM85.3206 44.5761C85.1375 44.5761 84.9885 44.6378 84.8735 44.7613C84.7607 44.8848 84.6883 45.0615 84.6564 45.2914H85.9401V45.2179C85.9359 45.0136 85.8805 44.856 85.7741 44.7453C85.6676 44.6325 85.5165 44.5761 85.3206 44.5761ZM87.2398 45.5947C87.2398 45.0646 87.3654 44.6378 87.6166 44.3142C87.87 43.9906 88.2106 43.8288 88.6385 43.8288C89.0174 43.8288 89.3123 43.9587 89.5231 44.2184L89.5614 43.8927H90.398V47.2329C90.398 47.5352 90.3289 47.7982 90.1905 48.0217C90.0542 48.2452 89.8616 48.4155 89.6125 48.5326C89.3634 48.6497 89.0717 48.7083 88.7375 48.7083C88.4842 48.7083 88.2372 48.6572 87.9966 48.555C87.7561 48.4549 87.5741 48.3251 87.4506 48.1654L87.8593 47.6034C88.0892 47.861 88.3681 47.9898 88.696 47.9898C88.9408 47.9898 89.1313 47.9238 89.2676 47.7918C89.4038 47.6619 89.472 47.4767 89.472 47.2361V47.0509C89.2591 47.2915 88.9791 47.4118 88.6321 47.4118C88.217 47.4118 87.8806 47.25 87.623 46.9264C87.3675 46.6007 87.2398 46.1696 87.2398 45.6331V45.5947ZM88.1627 45.6618C88.1627 45.9748 88.2255 46.2206 88.3511 46.3995C88.4767 46.5762 88.6491 46.6645 88.8684 46.6645C89.1494 46.6645 89.3506 46.5591 89.472 46.3484V44.8954C89.3485 44.6846 89.1494 44.5793 88.8748 44.5793C88.6534 44.5793 88.4788 44.6697 88.3511 44.8507C88.2255 45.0316 88.1627 45.302 88.1627 45.6618ZM93.0517 44.7581C92.9261 44.7411 92.8154 44.7325 92.7196 44.7325C92.3705 44.7325 92.1416 44.8507 92.033 45.087V47.3479H91.1102V43.8927H91.982L92.0075 44.3046C92.1927 43.9874 92.4492 43.8288 92.7771 43.8288C92.8793 43.8288 92.9751 43.8427 93.0645 43.8703L93.0517 44.7581ZM95.4052 47.3479C95.3627 47.2649 95.3318 47.1616 95.3126 47.0381C95.0891 47.2872 94.7985 47.4118 94.4408 47.4118C94.1023 47.4118 93.8213 47.3138 93.5978 47.118C93.3764 46.9221 93.2657 46.6752 93.2657 46.3771C93.2657 46.0109 93.4009 45.7299 93.6712 45.5341C93.9437 45.3382 94.3365 45.2392 94.8496 45.2371H95.2743V45.0391C95.2743 44.8794 95.2328 44.7517 95.1498 44.6559C95.0689 44.5601 94.9401 44.5122 94.7634 44.5122C94.608 44.5122 94.4855 44.5495 94.3961 44.624C94.3088 44.6985 94.2652 44.8007 94.2652 44.9305H93.3423C93.3423 44.7304 93.4041 44.5452 93.5275 44.3749C93.651 44.2046 93.8256 44.0715 94.0512 43.9757C94.2769 43.8778 94.5303 43.8288 94.8113 43.8288C95.2371 43.8288 95.5745 43.9363 95.8236 44.1513C96.0748 44.3642 96.2004 44.6644 96.2004 45.0519V46.5496C96.2025 46.8774 96.2483 47.1254 96.3377 47.2936V47.3479H95.4052ZM94.642 46.706C94.7783 46.706 94.9039 46.6762 95.0188 46.6166C95.1338 46.5549 95.219 46.4729 95.2743 46.3707V45.7768H94.9294C94.4675 45.7768 94.2216 45.9364 94.1918 46.2558L94.1886 46.3101C94.1886 46.425 94.229 46.5198 94.3099 46.5943C94.3908 46.6688 94.5015 46.706 94.642 46.706ZM98.0142 43.0433V43.8927H98.605V44.5697H98.0142V46.2941C98.0142 46.4218 98.0387 46.5134 98.0877 46.5687C98.1366 46.6241 98.2303 46.6517 98.3687 46.6517C98.4709 46.6517 98.5613 46.6443 98.6401 46.6294V47.3287C98.4592 47.3841 98.2729 47.4118 98.0813 47.4118C97.4341 47.4118 97.1041 47.085 97.0913 46.4314V44.5697H96.5868V43.8927H97.0913V43.0433H98.0142ZM100.093 47.3479H99.167V43.8927H100.093V47.3479ZM99.1127 42.9985C99.1127 42.8602 99.1585 42.7463 99.25 42.6569C99.3437 42.5674 99.4704 42.5227 99.63 42.5227C99.7876 42.5227 99.9132 42.5674 100.007 42.6569C100.101 42.7463 100.147 42.8602 100.147 42.9985C100.147 43.1391 100.099 43.254 100.004 43.3434C99.91 43.4328 99.7855 43.4775 99.63 43.4775C99.4746 43.4775 99.349 43.4328 99.2532 43.3434C99.1596 43.254 99.1127 43.1391 99.1127 42.9985ZM100.713 45.5884C100.713 45.2456 100.779 44.9401 100.911 44.6719C101.043 44.4036 101.232 44.1961 101.479 44.0492C101.728 43.9023 102.017 43.8288 102.344 43.8288C102.811 43.8288 103.191 43.9715 103.484 44.2567C103.78 44.542 103.945 44.9295 103.979 45.4191L103.986 45.6554C103.986 46.1855 103.838 46.6113 103.542 46.9328C103.246 47.2521 102.849 47.4118 102.351 47.4118C101.853 47.4118 101.455 47.2521 101.156 46.9328C100.861 46.6134 100.713 46.1791 100.713 45.6299V45.5884ZM101.635 45.6554C101.635 45.9833 101.697 46.2345 101.821 46.4091C101.944 46.5815 102.121 46.6677 102.351 46.6677C102.574 46.6677 102.749 46.5826 102.875 46.4122C103 46.2398 103.063 45.9652 103.063 45.5884C103.063 45.2669 103 45.0178 102.875 44.8411C102.749 44.6644 102.572 44.5761 102.344 44.5761C102.119 44.5761 101.944 44.6644 101.821 44.8411C101.697 45.0157 101.635 45.2871 101.635 45.6554ZM105.404 43.8927L105.432 44.2919C105.679 43.9832 106.01 43.8288 106.426 43.8288C106.792 43.8288 107.064 43.9363 107.243 44.1513C107.422 44.3664 107.513 44.6878 107.518 45.1157V47.3479H106.595V45.1381C106.595 44.9422 106.552 44.8007 106.467 44.7134C106.382 44.624 106.24 44.5793 106.042 44.5793C105.783 44.5793 105.588 44.69 105.458 44.9114V47.3479H104.535V43.8927H105.404Z" fill="#6D6E71"/>
<path d="M62.3376 10.2927H85.3157V15.399H76.9268V39.4712H71.0912V15.399H62.3376V10.2927Z" fill="#C6E0B0"/>
<path fill-rule="evenodd" clip-rule="evenodd" d="M32.7944 48.5895L47.7484 10.2927H54.3135L66.3497 39.4712H59.4198L57.2314 32.906H45.56L38.9948 48.5895H32.7944ZM51.3957 17.9521L47.7484 27.7998H54.3135L51.3957 17.9521Z" fill="#C6E0B0"/>
<path d="M62.3376 10.2927H85.3157V15.399H76.9268V39.4712H71.0912V15.399H62.3376V10.2927Z" fill="#0C5DA8"/>
<path fill-rule="evenodd" clip-rule="evenodd" d="M32.7944 48.5895L47.7484 10.2927H54.3135L66.3497 39.4712H59.4198L57.2314 32.906H45.56L38.9948 48.5895H32.7944ZM51.3957 17.9521L47.7484 27.7998H54.3135L51.3957 17.9521Z" fill="#0C5DA8"/>
<path d="M103.519 31.772C103.519 30.5839 103.1 29.6753 102.261 29.0463C101.422 28.4033 99.9128 27.7324 97.7322 27.0335C95.5516 26.3206 93.8253 25.6217 92.5533 24.9368C89.0867 23.0637 87.3534 20.5406 87.3534 17.3676C87.3534 15.7182 87.8147 14.2505 88.7373 12.9645C89.6738 11.6645 91.0087 10.6511 92.742 9.92428C94.4893 9.19741 96.4462 8.83398 98.6128 8.83398C100.793 8.83398 102.736 9.23236 104.442 10.0291C106.147 10.8119 107.468 11.9231 108.404 13.3629C109.355 14.8026 109.83 16.4381 109.83 18.2692H103.54C103.54 16.8714 103.1 15.7881 102.219 15.0193C101.339 14.2365 100.101 13.8451 98.508 13.8451C96.9704 13.8451 95.7752 14.1736 94.9226 14.8306C94.0699 15.4736 93.6436 16.3262 93.6436 17.3886C93.6436 18.381 94.1398 19.2127 95.1322 19.8837C96.1387 20.5546 97.6134 21.1836 99.5563 21.7707C103.135 22.847 105.742 24.1819 107.377 25.7754C109.012 27.3689 109.83 29.3538 109.83 31.7301C109.83 34.372 108.831 36.4477 106.832 37.9574C104.833 39.453 102.142 40.2008 98.7596 40.2008C96.4112 40.2008 94.2726 39.7745 92.3436 38.9218C90.4146 38.0552 88.9399 36.874 87.9195 35.3784C86.9131 33.8827 86.4099 32.1495 86.4099 30.1785H92.721C92.721 33.5473 94.7339 35.2316 98.7596 35.2316C100.255 35.2316 101.422 34.9311 102.261 34.33C103.1 33.715 103.519 32.8623 103.519 31.772Z" fill="#0C5DA8"/>
<path d="M40.2623 22.0423L45.3685 10.3709L37.3444 0.158447L24.5789 1.61737L19.4726 14.3829L28.2262 24.2307L40.2623 22.0423Z" fill="#C6E0B0"/>
<path d="M26.0038 25.1781L21.2623 37.9436L8.86142 39.4026L0.837341 29.9196L5.21411 17.8835L17.9797 16.0598L26.0038 25.1781Z" fill="#C6E0B0"/>
<path d="M39.197 25.1781L28.6198 26.637L23.8783 39.4026L30.4435 47.4266L39.197 25.1781Z" fill="#C6E0B0"/>
<path d="M47.2184 34.9759L42.4769 47.3767H45.03L49.7715 34.9759H47.2184Z" fill="#C6E0B0"/>
<path fill-rule="evenodd" clip-rule="evenodd" d="M19.6641 14.3049L20.3936 12.4812L29.5515 21.8817L41.1833 20.1405L40.4538 21.9642L28.4177 24.1526L19.6641 14.3049ZM23.8805 25.4954L15.6521 16.4932L17.8405 16.1285L25.8646 25.2468L21.1231 38.0124H18.9347L23.8805 25.4954ZM29.9181 28.4447L38.2654 27.0704L38.9949 25.2468L28.4177 26.7057L23.6762 39.4713L24.7704 40.9302L29.9181 28.4447Z" fill="#79BF50"/>
</svg>
